<svg id="svg" fill="#000000" stroke="#000000" width="200px" height="200px" version="1.1" viewBox="144 144 512 512" xmlns="http://www.w3.org/2000/svg">
    <g id="IconSvg_bgCarrier" stroke-width="0"></g>
    <g id="IconSvg_tracerCarrier" stroke-linecap="round" stroke-linejoin="round" stroke="#CCCCCC"></g>
     <g id="IconSvg_iconCarrier">
      <defs xmlns="http://www.w3.org/2000/svg">
  <clipPath id="a">
   <path d="m148.09 219h503.81v362h-503.81z"></path>
  </clipPath>
 </defs>
<g xmlns="http://www.w3.org/2000/svg" clip-path="url(#a)">
  <path d="m258.36 547.43v15.23c0 9.7461-7.918 17.668-17.668 17.668h-67.012c-9.7461 0-17.668-7.918-17.668-17.668 0-45.082 0.60938-90.16 0.60938-135.24 0.60938-43.863 15.84-63.355 24.367-71.887h-20.711c-6.7031 0-12.184-5.4844-12.184-12.184v-12.184c0-6.7031 7.3086-12.184 13.402-13.402l45.691-6.0938 30.461-56.656c7.918-11.574 27.414-24.367 41.426-26.195 79.805-12.184 162.05-12.184 241.85 0 14.621 1.8281 33.508 14.621 41.426 26.195l31.07 56.656 45.082 6.0938c6.0938 1.2188 13.402 6.7031 13.402 13.402v12.184c0 6.7031-5.4844 12.184-12.184 12.184h-20.711c8.5273 8.5273 23.758 28.023 24.367 71.887 0 45.082 0.60938 90.16 0.60938 135.24 0 9.7461-7.918 17.668-17.668 17.668h-67.012c-9.1367 0-17.059-7.918-17.059-17.668v-15.23c-95.035 6.0938-189.46 6.0938-283.89 0zm21.32-313.74c-12.793 1.8281-29.852 13.402-37.16 23.758l-32.289 59.094c-2.4375 4.875-22.539 38.379-22.539 40.207-7.3086 6.7031-24.977 23.148-25.586 70.668-0.60938 45.082-0.60938 90.16-0.60938 135.24 0 6.7031 5.4844 12.184 12.184 12.184h67.012c6.7031 0 12.184-5.4844 12.184-12.184v-20.711c98.082 6.0938 196.16 6.0938 294.25 0v20.711c0 6.7031 5.4844 12.184 12.184 12.184h67.012c7.3086 0 12.793-5.4844 12.793-12.184 0-45.082-0.60938-90.16-0.60938-135.24-0.60938-47.52-18.887-63.965-25.586-70.668 0-1.8281-20.711-35.332-23.148-40.207l-31.68-59.094c-7.918-10.355-24.367-21.93-37.77-23.758-79.195-11.574-160.83-11.574-240.63 0zm290.59 95.645-28.633-57.266c-5.4844-8.5273-13.402-13.402-23.148-15.84-69.449-10.965-166.92-10.965-236.98 0-9.7461 2.4375-17.668 7.3086-22.539 15.84l-29.242 57.266zm-51.172 120.62c-7.918 4.2656-14.012 10.965-18.887 18.887-1.2188 6.0938-0.60938 11.574 0 17.668l88.945-14.621c10.355-3.6562 18.277-11.574 23.758-21.32 1.2188-6.7031 1.2188-11.574-1.2188-17.668-31.07 6.0938-62.137 10.965-92.598 17.059zm-237.59 0c7.918 4.2656 14.012 10.965 18.277 18.887 1.2188 6.0938 0.60938 11.574 0 17.668l-88.945-14.621c-10.355-3.6562-18.277-11.574-23.148-21.32-1.2188-6.7031-1.8281-11.574 1.2188-17.668 30.461 6.0938 61.531 10.965 92.598 17.059z"></path>
 </g>

      </g>
      </svg>